<svg xmlns="http://www.w3.org/2000/svg" viewBox="0 0 256 256" width="256" height="256"><path d="M77.8 144.9h48.4v19.98H77.8zm48.4-17.1V91.5l-25.9 36.3h25.9zm-1.8-39.9c-23 1.4-42.3 18.1-47.9 39.9h19.3zm5.4 57h8.1v19.98h-8.1zm0-57.2v40.1h49.7a53.6 53.6 0 0 0-49.7-40.1zm11.7 57.2h36.7v19.98h-36.7z"/><path d="M128 18.4L33.1 73.2v109.6l94.9 54.8 94.9-54.8V73.2zm77.6 126.5h-23.8v21.8a1.7 1.7 0 0 1-1.8 1.8H76a1.7 1.7 0 0 1-1.8-1.8v-21.8H50.4a1.8 1.8 0 1 1 0-3.6h13.5v-11.7a1.7 1.7 0 0 1 1.8-1.8h7a57.2 57.2 0 0 1 55.1-43.7c.2-.2.4-.2.7 0a57 57 0 0 1 54.8 43.7h7a1.7 1.7 0 0 1 1.8 1.8v11.7h13.5a1.8 1.8 0 1 1 0 3.6z"/><path d="M67.5 131.4h121v9.9h-121z"/></svg>