<svg xmlns="http://www.w3.org/2000/svg" viewBox="0 0 256 256" width="256" height="256"><path d="M92.4 173.9h24.4l-7.3-9-17.1 9zm9.3-18.2H89.8L74 174.4l2.5 3.6 30.4-16-5.2-6.3zm64.1-16.5a45.2 45.2 0 0 0 2.2-13.7 39 39 0 0 0-78 0c0 4.7.4 9.5 2.2 13.7zm-86 3.6h98.5v9.36H79.8zm59.4 31.1h24.4l-17.1-9-7.3 9zm-32.8-18.2l15.1 18.2h13l15.1-18.2h-43.2z"/><path d="M128 27.4L33.1 82.2v109.6l94.9 54.8 94.9-54.8V82.2zm57.6 148.1l-4.1 6a2 2 0 0 1-2.4.5l-8.6-4.5H85.3l-8.6 4.5a1.9 1.9 0 0 1-2.3-.5l-4.2-6a2 2 0 0 1 .2-2.1l14.9-17.7H78a1.7 1.7 0 0 1-1.8-1.8V141a1.7 1.7 0 0 1 1.8-1.8h10.4a49.4 49.4 0 0 1-2-13.7 42.6 42.6 0 0 1 85.2 0 45.9 45.9 0 0 1-2 13.7H180a1.7 1.7 0 0 1 1.8 1.8v12.9a1.7 1.7 0 0 1-1.8 1.8h-9.2l14.8 17.7a1.8 1.8 0 0 1 0 2.1z"/><path d="M154.3 155.7l-5.4 6.3 30.6 16 2.5-3.4-15.8-18.9h-11.9z"/></svg>